<mxfile host="Electron" modified="2024-10-16T13:54:15.824Z" agent="Mozilla/5.0 (Windows NT 10.0; Win64; x64) AppleWebKit/537.36 (KHTML, like Gecko) draw.io/22.0.3 Chrome/114.0.5735.289 Electron/25.8.4 Safari/537.36" etag="tdqa100_1Or71XLNtJNb" version="22.0.3" type="device">
  <diagram name="Seite-1" id="9nK3wfkOpngoh8A5dkcI">
    <mxGraphModel dx="2029" dy="601" grid="1" gridSize="10" guides="1" tooltips="1" connect="1" arrows="0" fold="1" page="1" pageScale="1" pageWidth="1169" pageHeight="827" math="0" shadow="0">
      <root>
        <mxCell id="0" />
        <mxCell id="1" parent="0" />
        <mxCell id="GTTrDeBjhEMe1h_HdzNB-1" value="Input" style="sketch=0;aspect=fixed;pointerEvents=1;shadow=0;dashed=0;html=1;strokeColor=none;labelPosition=center;verticalLabelPosition=bottom;verticalAlign=top;align=center;fillColor=#00188D;shape=mxgraph.mscae.enterprise.device" parent="1" vertex="1">
          <mxGeometry x="60" y="388" width="50" height="26" as="geometry" />
        </mxCell>
        <mxCell id="GTTrDeBjhEMe1h_HdzNB-2" value="Processing" style="verticalLabelPosition=bottom;html=1;verticalAlign=top;align=center;strokeColor=none;fillColor=#00BEF2;shape=mxgraph.azure.startup_task;pointerEvents=1;" parent="1" vertex="1">
          <mxGeometry x="460" y="378.54999999999995" width="47.5" height="50" as="geometry" />
        </mxCell>
        <mxCell id="GTTrDeBjhEMe1h_HdzNB-4" value="Output" style="image;aspect=fixed;html=1;points=[];align=center;fontSize=12;image=img/lib/azure2/other/Azure_Monitor_Dashboard.svg;" parent="1" vertex="1">
          <mxGeometry x="860" y="376" width="68" height="63.2" as="geometry" />
        </mxCell>
        <mxCell id="GTTrDeBjhEMe1h_HdzNB-5" value="Security and Protection" style="image;aspect=fixed;perimeter=ellipsePerimeter;html=1;align=center;shadow=0;dashed=0;spacingTop=3;image=img/lib/active_directory/security.svg;" parent="1" vertex="1">
          <mxGeometry x="89.25" y="541.5" width="31.5" height="50" as="geometry" />
        </mxCell>
        <mxCell id="GTTrDeBjhEMe1h_HdzNB-6" value="Preprocessing&amp;nbsp;&lt;br&gt;(on edge device)" style="sketch=0;outlineConnect=0;fontColor=#232F3E;gradientColor=none;fillColor=#7AA116;strokeColor=none;dashed=0;verticalLabelPosition=bottom;verticalAlign=top;align=center;html=1;fontSize=12;fontStyle=0;aspect=fixed;pointerEvents=1;shape=mxgraph.aws4.iot_device_gateway;" parent="1" vertex="1">
          <mxGeometry x="281.26" y="374.09999999999997" width="57.48" height="53.8" as="geometry" />
        </mxCell>
        <mxCell id="GTTrDeBjhEMe1h_HdzNB-7" value="Data Storage" style="html=1;verticalLabelPosition=bottom;align=center;labelBackgroundColor=#ffffff;verticalAlign=top;strokeWidth=2;strokeColor=#0080F0;shadow=0;dashed=0;shape=mxgraph.ios7.icons.data;" parent="1" vertex="1">
          <mxGeometry x="654.25" y="364.45" width="70" height="73.1" as="geometry" />
        </mxCell>
        <mxCell id="GTTrDeBjhEMe1h_HdzNB-8" value="&lt;ol&gt;&lt;li&gt;Size of data (Total / Per Unit / Pertime)&lt;/li&gt;&lt;li&gt;Which protocolls are used (MQTT, OPCUA,...)&lt;/li&gt;&lt;li&gt;Data types (JSON, Int, Text)&lt;/li&gt;&lt;li&gt;Heterogenity of data&amp;nbsp;&lt;/li&gt;&lt;li&gt;Encrpyted&lt;/li&gt;&lt;li&gt;How many special cases?&lt;/li&gt;&lt;li&gt;Device Configuration&lt;/li&gt;&lt;ol&gt;&lt;li&gt;Excel? DB? Manual?&lt;/li&gt;&lt;/ol&gt;&lt;li&gt;Connection Quality&lt;/li&gt;&lt;/ol&gt;" style="rounded=1;whiteSpace=wrap;html=1;align=left;" parent="1" vertex="1">
          <mxGeometry x="-10" y="140" width="210" height="180" as="geometry" />
        </mxCell>
        <mxCell id="GTTrDeBjhEMe1h_HdzNB-9" value="&lt;ol&gt;&lt;li&gt;Reducing data?&lt;/li&gt;&lt;li&gt;Aggregation&lt;/li&gt;&lt;li&gt;Filtering&lt;/li&gt;&lt;li&gt;Noise reduction&lt;/li&gt;&lt;li&gt;defining states&lt;/li&gt;&lt;/ol&gt;" style="rounded=1;whiteSpace=wrap;html=1;align=left;" parent="1" vertex="1">
          <mxGeometry x="230" y="140" width="160" height="180" as="geometry" />
        </mxCell>
        <mxCell id="GTTrDeBjhEMe1h_HdzNB-10" value="&lt;ol&gt;&lt;li&gt;Structured / Semistructed /NonStructed&lt;/li&gt;&lt;li&gt;Database (Oracle, Postgress...)&lt;/li&gt;&lt;li&gt;Blobstorage&lt;/li&gt;&lt;li&gt;Speed (Read, Write)&lt;/li&gt;&lt;li&gt;Lookups?&lt;/li&gt;&lt;li&gt;Redundancy (Backups, Clustering,...)&lt;/li&gt;&lt;li&gt;&lt;span style=&quot;background-color: initial;&quot;&gt;Accesibility&amp;nbsp;&lt;/span&gt;&lt;br&gt;&lt;/li&gt;&lt;ol&gt;&lt;li&gt;&lt;span style=&quot;background-color: initial;&quot;&gt;Storage Time&lt;/span&gt;&lt;/li&gt;&lt;li&gt;&lt;span style=&quot;background-color: initial;&quot;&gt;Hot/Cold/Frozen Storage&lt;/span&gt;&lt;/li&gt;&lt;/ol&gt;&lt;li&gt;&lt;span style=&quot;background-color: initial;&quot;&gt;Manipulation of data&lt;/span&gt;&lt;/li&gt;&lt;li&gt;&lt;span style=&quot;background-color: initial;&quot;&gt;Realtime / Historical&lt;/span&gt;&lt;/li&gt;&lt;/ol&gt;" style="rounded=1;whiteSpace=wrap;html=1;align=left;" parent="1" vertex="1">
          <mxGeometry x="580" y="110" width="218.5" height="210" as="geometry" />
        </mxCell>
        <mxCell id="GTTrDeBjhEMe1h_HdzNB-11" value="&lt;ol&gt;&lt;li&gt;Dashboards&lt;/li&gt;&lt;li&gt;Who should be able to change?&lt;/li&gt;&lt;li&gt;APIs? Connectors?&lt;/li&gt;&lt;li&gt;How many user?&lt;/li&gt;&lt;li&gt;Alarme? Warnings?&lt;/li&gt;&lt;li&gt;Automatic Reports&lt;/li&gt;&lt;/ol&gt;" style="rounded=1;whiteSpace=wrap;html=1;align=left;" parent="1" vertex="1">
          <mxGeometry x="810" y="140" width="160" height="180" as="geometry" />
        </mxCell>
        <mxCell id="GTTrDeBjhEMe1h_HdzNB-12" value="&lt;ol&gt;&lt;li&gt;Filtering&lt;/li&gt;&lt;li&gt;Routing to DS&lt;/li&gt;&lt;li&gt;Enhance Data (with lookups)&lt;/li&gt;&lt;li&gt;AI?&lt;/li&gt;&lt;/ol&gt;" style="rounded=1;whiteSpace=wrap;html=1;align=left;" parent="1" vertex="1">
          <mxGeometry x="410" y="140" width="160" height="180" as="geometry" />
        </mxCell>
        <mxCell id="GTTrDeBjhEMe1h_HdzNB-13" value="&lt;ol&gt;&lt;li&gt;Protection of data?&lt;/li&gt;&lt;li&gt;Access to data?&lt;/li&gt;&lt;ol&gt;&lt;li&gt;Token?&lt;/li&gt;&lt;li&gt;Zertificate?&lt;/li&gt;&lt;/ol&gt;&lt;li&gt;Redundancy of algorithms and data&lt;/li&gt;&lt;li&gt;Encryption&lt;/li&gt;&lt;/ol&gt;" style="rounded=1;whiteSpace=wrap;html=1;align=left;" parent="1" vertex="1">
          <mxGeometry y="620" width="210" height="180" as="geometry" />
        </mxCell>
        <mxCell id="nFL45IxycsiahE_RSAcF-3" value="&lt;ol&gt;&lt;li&gt;Data parameters&lt;/li&gt;&lt;li&gt;How many tables?&lt;/li&gt;&lt;li&gt;How are data tables connected?&lt;/li&gt;&lt;li&gt;How many sources?&lt;/li&gt;&lt;li&gt;Who access data?&lt;/li&gt;&lt;li&gt;What is data failure? (missing values etc)&lt;/li&gt;&lt;li&gt;Data consistency&lt;/li&gt;&lt;/ol&gt;" style="rounded=1;whiteSpace=wrap;html=1;align=left;" parent="1" vertex="1">
          <mxGeometry x="230" y="620" width="230" height="180" as="geometry" />
        </mxCell>
        <mxCell id="WH13WRD_KhMVWZvh5pDs-1" value="&lt;ol&gt;&lt;li&gt;Inputfilter&lt;/li&gt;&lt;li&gt;Which Datamodels&lt;/li&gt;&lt;li&gt;Performance&lt;/li&gt;&lt;li&gt;Standard/Special wishes&lt;/li&gt;&lt;li&gt;Visual Elements&lt;/li&gt;&lt;ol&gt;&lt;li&gt;Tables&lt;/li&gt;&lt;li&gt;Plots&lt;/li&gt;&lt;li&gt;Glass Tables&lt;/li&gt;&lt;li&gt;Heatmaps...&lt;/li&gt;&lt;/ol&gt;&lt;li&gt;Corporate Identity&lt;/li&gt;&lt;li&gt;User Acces&lt;/li&gt;&lt;/ol&gt;" style="rounded=1;whiteSpace=wrap;html=1;align=left;" vertex="1" parent="1">
          <mxGeometry x="990" y="140" width="190" height="180" as="geometry" />
        </mxCell>
        <mxCell id="WH13WRD_KhMVWZvh5pDs-2" value="Dashboards" style="sketch=0;outlineConnect=0;fontColor=#232F3E;gradientColor=none;fillColor=#8C4FFF;strokeColor=none;dashed=0;verticalLabelPosition=bottom;verticalAlign=top;align=center;html=1;fontSize=12;fontStyle=0;aspect=fixed;pointerEvents=1;shape=mxgraph.aws4.opensearch_dashboards;" vertex="1" parent="1">
          <mxGeometry x="1031" y="378.55" width="78" height="59" as="geometry" />
        </mxCell>
        <mxCell id="WH13WRD_KhMVWZvh5pDs-3" value="Data modells" style="outlineConnect=0;dashed=0;verticalLabelPosition=bottom;verticalAlign=top;align=center;html=1;shape=mxgraph.aws3.data_pipeline;fillColor=#F58534;gradientColor=none;" vertex="1" parent="1">
          <mxGeometry x="311.25" y="513.5" width="67.5" height="81" as="geometry" />
        </mxCell>
        <mxCell id="WH13WRD_KhMVWZvh5pDs-4" value="Education" style="outlineConnect=0;dashed=0;verticalLabelPosition=bottom;verticalAlign=top;align=center;html=1;shape=mxgraph.aws3.users;fillColor=#ACACAC;gradientColor=none;" vertex="1" parent="1">
          <mxGeometry x="547.5" y="531.5" width="66" height="63" as="geometry" />
        </mxCell>
        <mxCell id="WH13WRD_KhMVWZvh5pDs-5" value="&lt;ol&gt;&lt;li&gt;Onboarding&lt;/li&gt;&lt;li&gt;Manuals&lt;/li&gt;&lt;li&gt;Dashboard Introductions&lt;/li&gt;&lt;/ol&gt;" style="rounded=1;whiteSpace=wrap;html=1;align=left;" vertex="1" parent="1">
          <mxGeometry x="489" y="620" width="190.5" height="170" as="geometry" />
        </mxCell>
        <mxCell id="WH13WRD_KhMVWZvh5pDs-7" value="&lt;div&gt;&lt;br&gt;&lt;/div&gt;&lt;ol&gt;&lt;li&gt;&lt;span style=&quot;background-color: initial;&quot;&gt;Cycles of updates&lt;/span&gt;&lt;br&gt;&lt;/li&gt;&lt;li&gt;&lt;span style=&quot;background-color: initial;&quot;&gt;Hot Fix policy&lt;/span&gt;&lt;br&gt;&lt;/li&gt;&lt;li&gt;&lt;span style=&quot;background-color: initial;&quot;&gt;Service Times&lt;/span&gt;&lt;br&gt;&lt;/li&gt;&lt;li&gt;&lt;span style=&quot;background-color: initial;&quot;&gt;Responsibiltys&lt;/span&gt;&lt;br&gt;&lt;/li&gt;&lt;li&gt;&lt;span style=&quot;background-color: initial;&quot;&gt;Testing&lt;/span&gt;&lt;br&gt;&lt;/li&gt;&lt;/ol&gt;" style="rounded=1;whiteSpace=wrap;html=1;align=left;" vertex="1" parent="1">
          <mxGeometry x="699.5" y="620" width="230" height="170" as="geometry" />
        </mxCell>
        <mxCell id="WH13WRD_KhMVWZvh5pDs-8" value="Updates / Maintenance" style="sketch=0;points=[[0,0,0],[0.25,0,0],[0.5,0,0],[0.75,0,0],[1,0,0],[0,1,0],[0.25,1,0],[0.5,1,0],[0.75,1,0],[1,1,0],[0,0.25,0],[0,0.5,0],[0,0.75,0],[1,0.25,0],[1,0.5,0],[1,0.75,0]];outlineConnect=0;fontColor=#232F3E;fillColor=#E7157B;strokeColor=#ffffff;dashed=0;verticalLabelPosition=bottom;verticalAlign=top;align=center;html=1;fontSize=12;fontStyle=0;aspect=fixed;shape=mxgraph.aws4.resourceIcon;resIcon=mxgraph.aws4.managed_workflows_for_apache_airflow;" vertex="1" parent="1">
          <mxGeometry x="782" y="513.5" width="78" height="78" as="geometry" />
        </mxCell>
        <mxCell id="WH13WRD_KhMVWZvh5pDs-9" value="Infrastructure" style="image;aspect=fixed;html=1;points=[];align=center;fontSize=12;image=img/lib/azure2/other/Bare_Metal_Infrastructure.svg;" vertex="1" parent="1">
          <mxGeometry x="1036" y="530" width="68" height="64" as="geometry" />
        </mxCell>
        <mxCell id="WH13WRD_KhMVWZvh5pDs-10" value="&lt;ol&gt;&lt;li&gt;Which services run in private, which in cloud?&lt;/li&gt;&lt;li&gt;How to access company infrastruce?&lt;/li&gt;&lt;li&gt;What servers are available?&lt;/li&gt;&lt;li&gt;Which OS is used?&lt;/li&gt;&lt;/ol&gt;" style="rounded=1;whiteSpace=wrap;html=1;align=left;" vertex="1" parent="1">
          <mxGeometry x="950" y="620" width="230" height="170" as="geometry" />
        </mxCell>
        <mxCell id="WH13WRD_KhMVWZvh5pDs-11" value="&lt;ol&gt;&lt;li&gt;Cost&lt;/li&gt;&lt;ol&gt;&lt;li&gt;When, How&lt;/li&gt;&lt;/ol&gt;&lt;li&gt;Time&lt;/li&gt;&lt;ol&gt;&lt;li&gt;End of project&lt;/li&gt;&lt;li&gt;Milestones&lt;/li&gt;&lt;/ol&gt;&lt;li&gt;Project Methods&lt;/li&gt;&lt;ol&gt;&lt;li&gt;Scrum -&amp;gt; PO&lt;/li&gt;&lt;/ol&gt;&lt;li&gt;NDA&lt;/li&gt;&lt;li&gt;Project Partners&lt;/li&gt;&lt;li&gt;Support Level&lt;/li&gt;&lt;/ol&gt;" style="rounded=1;whiteSpace=wrap;html=1;align=left;" vertex="1" parent="1">
          <mxGeometry x="-230" y="140" width="190" height="180" as="geometry" />
        </mxCell>
        <mxCell id="WH13WRD_KhMVWZvh5pDs-12" value="Project in general" style="sketch=0;outlineConnect=0;fontColor=#232F3E;gradientColor=none;fillColor=#8C4FFF;strokeColor=none;dashed=0;verticalLabelPosition=bottom;verticalAlign=top;align=center;html=1;fontSize=12;fontStyle=0;aspect=fixed;pointerEvents=1;shape=mxgraph.aws4.datazone_data_projects;" vertex="1" parent="1">
          <mxGeometry x="-160" y="376" width="45.55" height="45.55" as="geometry" />
        </mxCell>
        <mxCell id="WH13WRD_KhMVWZvh5pDs-13" value="&lt;ol&gt;&lt;li&gt;Development Stage&amp;nbsp;&lt;/li&gt;&lt;li&gt;Teststage&lt;/li&gt;&lt;li&gt;Test Environment&lt;/li&gt;&lt;li&gt;Pseudo Data generator&lt;/li&gt;&lt;li&gt;Toy model&lt;/li&gt;&lt;/ol&gt;" style="rounded=1;whiteSpace=wrap;html=1;align=left;" vertex="1" parent="1">
          <mxGeometry x="-220" y="620" width="210" height="180" as="geometry" />
        </mxCell>
        <mxCell id="WH13WRD_KhMVWZvh5pDs-14" value="Tests" style="image;aspect=fixed;html=1;points=[];align=center;fontSize=12;image=img/lib/azure2/general/Load_Test.svg;" vertex="1" parent="1">
          <mxGeometry x="-135.61" y="551.5" width="41.21" height="40" as="geometry" />
        </mxCell>
      </root>
    </mxGraphModel>
  </diagram>
</mxfile>
